<!-- icon666.com - MILLIONS vector ICONS FREE --><svg id="Layer_1" enable-background="new 0 0 48 48" viewBox="0 0 48 48" xmlns="http://www.w3.org/2000/svg"><g><path d="m34 19c0-5.51-4.49-10-10-10s-10 4.49-10 10 4.49 10 10 10 10-4.49 10-10zm-10 8c-4.41 0-8-3.59-8-8s3.59-8 8-8 8 3.59 8 8-3.59 8-8 8z"></path><path d="m24 3c-11.58 0-21 9.42-21 21 0 6.67 3.06 12.79 8.4 16.8.07.05.14.09.2.14.01.01.02.02.03.02 3.02 2.2 6.56 3.56 10.26 3.93.68.08 1.37.11 2.11.11s1.43-.03 2.1-.1c3.71-.37 7.25-1.73 10.27-3.93.01-.01.02-.01.03-.02.07-.05.14-.09.21-.14 5.33-4.02 8.39-10.14 8.39-16.81 0-11.58-9.42-21-21-21zm1.89 39.91c-1.2.13-2.58.13-3.8 0-3.17-.31-6.21-1.44-8.84-3.24 1.09-5.06 5.51-8.67 10.75-8.67 2.94 0 5.71 1.14 7.78 3.22 1.51 1.51 2.52 3.38 2.96 5.44-2.63 1.81-5.67 2.93-8.85 3.25zm10.58-4.58c-.6-2.08-1.71-3.97-3.27-5.53-2.45-2.45-5.72-3.8-9.2-3.8-5.88 0-10.87 3.84-12.46 9.33-4.17-3.61-6.54-8.76-6.54-14.33 0-10.48 8.52-19 19-19s19 8.52 19 19c0 5.57-2.37 10.72-6.53 14.33z"></path></g></svg>